<svg width="288" height="73" viewBox="0 0 288 73" fill="none" xmlns="http://www.w3.org/2000/svg">
<g filter="url(#filter0_d)">
<path d="M17.9068 33.7555C17.9068 36.7095 20.1608 38.9635 23.4228 38.9635C24.4308 38.9635 25.5228 38.7535 26.3908 38.2915V36.0235C25.5508 36.5975 24.5708 36.9615 23.5208 36.9615C21.4348 36.9615 20.1328 35.5335 20.1328 33.7275C20.1328 31.8935 21.4768 30.5215 23.4368 30.5215C24.4728 30.5215 25.4948 30.8995 26.2368 31.4035V29.1495C25.4388 28.7575 24.4448 28.5195 23.4228 28.5195C20.1608 28.5195 17.9068 30.8155 17.9068 33.7555Z" fill="white"/>
<path d="M28.8081 37.3115C29.5221 38.3615 30.8381 38.9635 32.4621 38.9635C34.0861 38.9635 35.3881 38.3615 36.1021 37.3395C36.6761 36.5275 36.8861 35.4215 36.8861 33.8955V28.6735H34.7441V33.8815C34.7441 36.0655 34.1421 36.9615 32.5181 36.9615C30.7541 36.9615 30.2781 35.9955 30.2781 33.8675V28.6735H28.0521V33.9515C28.0521 35.3935 28.2621 36.4995 28.8081 37.3115Z" fill="white"/>
<path d="M38.9164 38.8095H41.1424V34.8055H42.1364L44.6984 38.8095H47.2604L44.4044 34.5255C45.7484 34.0915 46.4624 33.0275 46.4624 31.7255C46.4624 29.3035 44.4044 28.6735 42.0944 28.6735H38.9164V38.8095ZM41.1424 33.1395V30.6195H41.9964C43.6484 30.6195 44.2364 30.9975 44.2364 31.8795C44.2364 32.8175 43.5224 33.1395 42.2624 33.1395H41.1424Z" fill="white"/>
<path d="M48.3429 38.8095H50.5689V34.8055H51.5629L54.1249 38.8095H56.6869L53.8309 34.5255C55.1749 34.0915 55.8889 33.0275 55.8889 31.7255C55.8889 29.3035 53.8309 28.6735 51.5209 28.6735H48.3429V38.8095ZM50.5689 33.1395V30.6195H51.4229C53.0749 30.6195 53.6629 30.9975 53.6629 31.8795C53.6629 32.8175 52.9489 33.1395 51.6889 33.1395H50.5689Z" fill="white"/>
<path d="M57.7694 38.8095H64.1814V36.8635H59.9954V34.4555H63.4674V32.6075H59.9954V30.6195H64.0274V28.6735H57.7694V38.8095Z" fill="white"/>
<path d="M72.9811 38.8095H75.0811V28.6735H72.9391V32.4395C72.9391 33.4195 72.9531 34.3995 72.9671 35.3655L72.9391 35.3795C72.3091 34.4975 71.6931 33.6435 71.0351 32.7615L67.9971 28.6735H65.8971V38.8095H68.0391V35.0435C68.0391 34.0635 68.0251 33.0835 68.0111 32.1175L68.0391 32.1035C68.6691 32.9855 69.2851 33.8395 69.9431 34.7215L72.9811 38.8095Z" fill="white"/>
<path d="M79.7723 38.8095H81.9983V30.6195H85.2743V28.6735H76.4963V30.6195H79.7723V38.8095Z" fill="white"/>
<path d="M22.3623 52.8095H24.4623V42.6735H22.3203V46.4395C22.3203 47.4195 22.3343 48.3995 22.3483 49.3655L22.3203 49.3795C21.6903 48.4975 21.0743 47.6435 20.4163 46.7615L17.3783 42.6735H15.2783V52.8095H17.4203V49.0435C17.4203 48.0635 17.4063 47.0835 17.3923 46.1175L17.4203 46.1035C18.0503 46.9855 18.6663 47.8395 19.3243 48.7215L22.3623 52.8095Z" fill="white"/>
<path d="M26.5915 52.8095H33.0035V50.8635H28.8175V48.4555H32.2895V46.6075H28.8175V44.6195H32.8495V42.6735H26.5915V52.8095Z" fill="white"/>
<path d="M37.2812 52.8095H39.5072V44.6195H42.7832V42.6735H34.0052V44.6195H37.2812V52.8095Z" fill="white"/>
<path d="M46.4684 52.8095H48.7924L49.8844 49.2815C50.1504 48.4275 50.3884 47.6295 50.6124 46.8175H50.6404C50.8644 47.6295 51.0884 48.3855 51.3544 49.2395L52.4464 52.8095H54.7984L57.9204 42.6735H55.6804L54.3784 46.9855C54.1124 47.8535 53.8464 48.7915 53.6224 49.6455H53.5944C53.3564 48.7775 53.0904 47.8815 52.8244 47.0135L51.4944 42.6735H49.8704L48.5264 47.0135C48.2604 47.8675 47.9944 48.7775 47.7564 49.6455H47.7284C47.5044 48.7915 47.2524 47.8815 47.0004 47.0275L45.7124 42.6735H43.3744L46.4684 52.8095Z" fill="white"/>
<path d="M63.6388 50.9475C61.8888 50.9475 60.5728 49.5335 60.5728 47.7415C60.5728 45.9495 61.8888 44.5355 63.6388 44.5355C65.3888 44.5355 66.7048 45.9495 66.7048 47.7415C66.7048 49.5335 65.3888 50.9475 63.6388 50.9475ZM63.6388 52.9635C66.6488 52.9635 68.9308 50.6955 68.9308 47.7415C68.9308 44.7875 66.6488 42.5195 63.6388 42.5195C60.6288 42.5195 58.3468 44.7875 58.3468 47.7415C58.3468 50.6955 60.6288 52.9635 63.6388 52.9635Z" fill="white"/>
<path d="M70.6139 52.8095H72.8399V48.8055H73.8339L76.3959 52.8095H78.9579L76.1019 48.5255C77.4459 48.0915 78.1599 47.0275 78.1599 45.7255C78.1599 43.3035 76.1019 42.6735 73.7919 42.6735H70.6139V52.8095ZM72.8399 47.1395V44.6195H73.6939C75.3459 44.6195 75.9339 44.9975 75.9339 45.8795C75.9339 46.8175 75.2199 47.1395 73.9599 47.1395H72.8399Z" fill="white"/>
<path d="M80.0404 52.8095H82.2664V47.7555L82.2944 47.7415L86.0603 52.8095H88.8044L84.6463 47.3775L88.4823 42.6735H85.8363L82.2944 47.1675L82.2664 47.1535V42.6735H80.0404V52.8095Z" fill="white"/>
</g>
<path d="M228.443 22.5952L223.341 27.6974L218.238 22.5952L223.341 17.4931L228.443 22.5952ZM240.834 10.2043L249.58 18.9508L254.682 13.8487L240.834 0L226.985 13.8487L232.087 18.9508L240.834 10.2043ZM258.327 17.4931L253.225 22.5952L258.327 27.6974L263.429 22.5952L258.327 17.4931ZM240.834 34.9862L232.087 26.2396L226.985 31.3418L240.834 45.1905L254.682 31.3418L249.58 26.2396L240.834 34.9862ZM240.834 27.6974L245.936 22.5952L240.834 17.4931L235.732 22.5952L240.834 27.6974Z" fill="url(#paint0_linear)"/>
<path d="M204.789 67.9113C204.789 67.4574 205.238 67.1001 206.007 67.1001C206.692 67.1001 207.365 67.3416 208.038 67.7955L208.744 66.8974C207.985 66.347 207.119 66.0476 206.029 66.0476C204.543 66.0476 203.474 66.8394 203.474 68.0175C203.474 69.2728 204.372 69.6976 205.965 70.0453C207.354 70.3349 207.654 70.5957 207.654 71.0881C207.654 71.6095 207.141 71.9474 206.328 71.9474C205.398 71.9474 204.682 71.6289 203.966 71.0687L203.175 71.9185C204.073 72.6428 205.152 73 206.296 73C207.867 73 208.968 72.2469 208.968 70.9722C208.968 69.8425 208.145 69.3306 206.563 68.9832C205.131 68.6742 204.789 68.4423 204.789 67.9113Z" fill="url(#paint1_linear)"/>
<path d="M215.836 68.0142V73H217.079V66.0476H215.756L213.603 69.3351L211.451 66.0476H210.127V73H211.35V68.0339L213.563 71.2916H213.603L215.836 68.0142Z" fill="url(#paint2_linear)"/>
<path d="M222.927 66.0476H221.66L218.238 73H219.638L220.438 71.3334H224.116L224.905 73H226.349L222.927 66.0476ZM223.616 70.2585H220.938L222.272 67.4973L223.616 70.2585Z" fill="url(#paint3_linear)"/>
<path d="M233.301 73L231.458 70.3681C232.414 70.0999 233.087 69.4046 233.087 68.2524C233.087 66.8918 232.121 66.0476 230.551 66.0476H227.508V73H228.707V70.5766H230.21L231.887 73H233.301ZM231.868 68.3219C231.868 69.0371 231.322 69.494 230.463 69.494H228.707V67.16H230.453C231.341 67.16 231.868 67.5571 231.868 68.3219Z" fill="url(#paint4_linear)"/>
<path d="M237.99 67.1799H240.255V66.0476H234.461V67.1799H236.725V73H237.99V67.1799Z" fill="url(#paint5_linear)"/>
<path d="M250.683 71.8093L249.825 71.0411C249.173 71.5788 248.575 71.915 247.641 71.915C246.185 71.915 245.132 70.8393 245.132 69.5143C245.132 68.189 246.185 67.1328 247.641 67.1328C248.51 67.1328 249.162 67.4688 249.77 67.9682L250.629 67.0943C249.901 66.4798 249.053 66.0476 247.652 66.0476C245.349 66.0476 243.73 67.6129 243.73 69.5335C243.73 71.4731 245.382 73 247.598 73C249.021 73 249.89 72.5391 250.683 71.8093Z" fill="url(#paint6_linear)"/>
<path d="M256.407 70.0699V73H257.635V66.0476H256.407V68.9377H253.07V66.0476H251.842V73H253.07V70.0699H256.407Z" fill="url(#paint7_linear)"/>
<path d="M263.483 66.0476H262.216L258.794 73H260.194L260.994 71.3334H264.672L265.461 73H266.905L263.483 66.0476ZM264.172 70.2585H261.494L262.827 67.4973L264.172 70.2585Z" fill="url(#paint8_linear)"/>
<path d="M268.063 66.0476V73H269.222V66.0476H268.063Z" fill="url(#paint9_linear)"/>
<path d="M276.184 70.8546L272.623 66.0476H271.54V73H272.689V68.0538L276.355 73H277.334V66.0476H276.184V70.8546Z" fill="url(#paint10_linear)"/>
<path fill-rule="evenodd" clip-rule="evenodd" d="M265.707 59.6034L267.216 61.1279C266.108 62.3137 264.876 63.0526 262.797 63.0526C259.625 63.0526 257.269 60.6042 257.269 57.509V57.4783C257.269 54.414 259.579 51.9041 262.889 51.9041C264.922 51.9041 266.139 52.5816 267.139 53.5671L265.63 55.3072C264.799 54.5526 263.952 54.0907 262.874 54.0907C261.057 54.0907 259.748 55.5996 259.748 57.4476V57.4783C259.748 59.3263 261.026 60.8662 262.874 60.8662C264.106 60.8662 264.86 60.3734 265.707 59.6034ZM239.051 52.0119L243.67 62.8678H241.191L240.206 60.4504H235.648L234.662 62.8678H232.245L236.864 52.0119H239.051ZM212.814 59.8805V59.9114C212.814 61.8823 211.213 62.8678 208.78 62.8678H203.652V52.0888H208.657C210.859 52.0888 212.214 53.1822 212.214 54.8761V54.9068C212.214 56.1233 211.567 56.8008 210.797 57.232C212.045 57.7094 212.814 58.4329 212.814 59.8805ZM217.787 52.0888V62.8678H215.416V52.0888H217.787ZM230.535 62.8678V52.0888H228.194V58.7257L223.143 52.0888H220.957V62.8678H223.297V56.0154L228.518 62.8678H230.535ZM254.974 62.8678V52.0888H252.633V58.7257L247.582 52.0888H245.396V62.8678H247.736V56.0154L252.957 62.8678H254.974ZM277.334 62.8678V60.7583H271.483V58.4947H276.564V56.385H271.483V54.1985H277.257V52.0888H269.127V62.8678H277.334ZM208.149 56.4468C209.195 56.4468 209.858 56.1081 209.858 55.3074V55.2767C209.858 54.5683 209.303 54.1678 208.302 54.1678H205.962V56.4468H208.149ZM208.78 60.7892C209.827 60.7892 210.458 60.4196 210.458 59.6189V59.588C210.458 58.8644 209.919 58.4179 208.703 58.4179H205.962V60.7892H208.78ZM237.927 54.8607L239.359 58.3561H236.495L237.927 54.8607Z" fill="url(#paint11_linear)"/>
<path d="M136.417 48.7468V56.2468H128.917" stroke="url(#paint12_linear)" stroke-width="2" stroke-linecap="round" stroke-linejoin="round"/>
<path d="M158.917 41.2468V33.7468H166.417" stroke="url(#paint13_linear)" stroke-width="2" stroke-linecap="round" stroke-linejoin="round"/>
<path d="M159.387 33.7417C164.717 39.2952 165.421 47.8265 161.073 54.1784C156.724 60.5303 148.516 62.9606 141.41 60" stroke="url(#paint14_linear)" stroke-width="2" stroke-linecap="round" stroke-linejoin="round"/>
<path d="M135.945 56.2518C130.626 50.6957 129.929 42.1724 134.275 35.8265C138.621 29.4805 146.82 27.0492 153.923 30.0001" stroke="url(#paint15_linear)" stroke-width="2" stroke-linecap="round" stroke-linejoin="round"/>
<defs>
<filter id="filter0_d" x="0.27832" y="13.5195" width="103.526" height="54.444" filterUnits="userSpaceOnUse" color-interpolation-filters="sRGB">
<feFlood flood-opacity="0" result="BackgroundImageFix"/>
<feColorMatrix in="SourceAlpha" type="matrix" values="0 0 0 0 0 0 0 0 0 0 0 0 0 0 0 0 0 0 127 0"/>
<feOffset/>
<feGaussianBlur stdDeviation="7.5"/>
<feColorMatrix type="matrix" values="0 0 0 0 0.0509804 0 0 0 0 0.0823529 0 0 0 0 0.243137 0 0 0 0.7 0"/>
<feBlend mode="normal" in2="BackgroundImageFix" result="effect1_dropShadow"/>
<feBlend mode="normal" in="SourceGraphic" in2="effect1_dropShadow" result="shape"/>
</filter>
<linearGradient id="paint0_linear" x1="240.834" y1="13.9559" x2="242.176" y2="83.6433" gradientUnits="userSpaceOnUse">
<stop stop-color="white"/>
<stop offset="1" stop-color="#74857A"/>
</linearGradient>
<linearGradient id="paint1_linear" x1="206.072" y1="68.1947" x2="206.319" y2="78.9141" gradientUnits="userSpaceOnUse">
<stop stop-color="white"/>
<stop offset="1" stop-color="#74857A"/>
</linearGradient>
<linearGradient id="paint2_linear" x1="213.603" y1="68.1947" x2="213.81" y2="78.9158" gradientUnits="userSpaceOnUse">
<stop stop-color="white"/>
<stop offset="1" stop-color="#74857A"/>
</linearGradient>
<linearGradient id="paint3_linear" x1="222.294" y1="68.1947" x2="222.471" y2="78.9169" gradientUnits="userSpaceOnUse">
<stop stop-color="white"/>
<stop offset="1" stop-color="#74857A"/>
</linearGradient>
<linearGradient id="paint4_linear" x1="230.405" y1="68.1947" x2="230.652" y2="78.9141" gradientUnits="userSpaceOnUse">
<stop stop-color="white"/>
<stop offset="1" stop-color="#74857A"/>
</linearGradient>
<linearGradient id="paint5_linear" x1="237.358" y1="68.1947" x2="237.606" y2="78.9141" gradientUnits="userSpaceOnUse">
<stop stop-color="white"/>
<stop offset="1" stop-color="#74857A"/>
</linearGradient>
<linearGradient id="paint6_linear" x1="247.207" y1="68.1947" x2="247.413" y2="78.9158" gradientUnits="userSpaceOnUse">
<stop stop-color="white"/>
<stop offset="1" stop-color="#74857A"/>
</linearGradient>
<linearGradient id="paint7_linear" x1="254.739" y1="68.1947" x2="254.986" y2="78.9141" gradientUnits="userSpaceOnUse">
<stop stop-color="white"/>
<stop offset="1" stop-color="#74857A"/>
</linearGradient>
<linearGradient id="paint8_linear" x1="262.85" y1="68.1947" x2="263.027" y2="78.9169" gradientUnits="userSpaceOnUse">
<stop stop-color="white"/>
<stop offset="1" stop-color="#74857A"/>
</linearGradient>
<linearGradient id="paint9_linear" x1="268.643" y1="68.1947" x2="269.866" y2="78.7784" gradientUnits="userSpaceOnUse">
<stop stop-color="white"/>
<stop offset="1" stop-color="#74857A"/>
</linearGradient>
<linearGradient id="paint10_linear" x1="274.437" y1="68.1947" x2="274.685" y2="78.9141" gradientUnits="userSpaceOnUse">
<stop stop-color="white"/>
<stop offset="1" stop-color="#74857A"/>
</linearGradient>
<linearGradient id="paint11_linear" x1="240.493" y1="55.347" x2="240.543" y2="72.5452" gradientUnits="userSpaceOnUse">
<stop stop-color="white"/>
<stop offset="1" stop-color="#74857A"/>
</linearGradient>
<linearGradient id="paint12_linear" x1="132.218" y1="46.7218" x2="140.564" y2="57.1467" gradientUnits="userSpaceOnUse">
<stop stop-color="#30E06F"/>
<stop offset="0.934555" stop-color="#118139"/>
</linearGradient>
<linearGradient id="paint13_linear" x1="162.218" y1="31.7218" x2="170.564" y2="42.1467" gradientUnits="userSpaceOnUse">
<stop stop-color="#30E06F"/>
<stop offset="0.934555" stop-color="#118139"/>
</linearGradient>
<linearGradient id="paint14_linear" x1="151.315" y1="26.314" x2="182.683" y2="58.3641" gradientUnits="userSpaceOnUse">
<stop stop-color="#30E06F"/>
<stop offset="0.934555" stop-color="#118139"/>
</linearGradient>
<linearGradient id="paint15_linear" x1="141.331" y1="21.3304" x2="172.684" y2="53.3621" gradientUnits="userSpaceOnUse">
<stop stop-color="#30E06F"/>
<stop offset="0.934555" stop-color="#118139"/>
</linearGradient>
</defs>
</svg>
