<svg width="20" height="20" viewBox="0 0 20 20" fill="none" xmlns="http://www.w3.org/2000/svg">
<path fill-rule="evenodd" clip-rule="evenodd" d="M10 1.5625C5.3401 1.5625 1.5625 5.3401 1.5625 10C1.5625 14.6599 5.3401 18.4375 10 18.4375C14.6599 18.4375 18.4375 14.6599 18.4375 10C18.4375 7.76224 17.5486 5.61612 15.9662 4.03379C14.3839 2.45145 12.2378 1.5625 10 1.5625Z" stroke="#2D447D" stroke-width="1.25" stroke-linecap="round" stroke-linejoin="round"/>
<path fill-rule="evenodd" clip-rule="evenodd" d="M7.67127 13.5655L6.23877 9.14051L10 6.40601L13.7613 9.14051L12.3288 13.5655H7.67127V13.5655Z" stroke="#2D447D" stroke-width="1.25" stroke-linecap="round" stroke-linejoin="round"/>
<path d="M13.2258 2.20074L10 4.37499L6.77429 2.20074" stroke="#2D447D" stroke-width="1.25" stroke-linecap="round" stroke-linejoin="round"/>
<path d="M11.9492 18.211L13.5535 14.9365L17.2165 14.374" stroke="#2D447D" stroke-width="1.25" stroke-linecap="round" stroke-linejoin="round"/>
<path d="M18.4105 10.6817L15.8402 8.12199L16.3915 4.49274" stroke="#2D447D" stroke-width="1.25" stroke-linecap="round" stroke-linejoin="round"/>
<path d="M10 4.375V6.406" stroke="#2D447D" stroke-width="1.25" stroke-linecap="round" stroke-linejoin="round"/>
<path d="M13.7612 9.14051L15.8402 8.12201" stroke="#2D447D" stroke-width="1.25" stroke-linecap="round" stroke-linejoin="round"/>
<path d="M1.58948 10.6817L4.15973 8.12199L3.60848 4.49274" stroke="#2D447D" stroke-width="1.25" stroke-linecap="round" stroke-linejoin="round"/>
<path d="M6.23879 9.14051L4.15979 8.12201" stroke="#2D447D" stroke-width="1.25" stroke-linecap="round" stroke-linejoin="round"/>
<path d="M12.3287 13.5655L13.5535 14.9365" stroke="#2D447D" stroke-width="1.25" stroke-linecap="round" stroke-linejoin="round"/>
<path d="M8.0507 18.211L6.44645 14.9365L2.78345 14.374" stroke="#2D447D" stroke-width="1.25" stroke-linecap="round" stroke-linejoin="round"/>
<path d="M7.67128 13.5655L6.44653 14.9365" stroke="#2D447D" stroke-width="1.25" stroke-linecap="round" stroke-linejoin="round"/>
</svg>
